<svg xmlns="http://www.w3.org/2000/svg" version="1.1" xmlns:xlink="http://www.w3.org/1999/xlink" xmlns:svgjs="http://svgjs.dev/svgjs" width="1000" height="648" viewBox="0 0 1000 648"><g transform="matrix(1,0,0,1,0.1066666666666265,-0.39200000000005275)"><svg viewBox="0 0 375 243" data-background-color="#ffffff" preserveAspectRatio="xMidYMid meet" height="648" width="1000" xmlns="http://www.w3.org/2000/svg" xmlns:xlink="http://www.w3.org/1999/xlink"><g id="tight-bounds" transform="matrix(1,0,0,1,-0.03976036071776434,0.1474915771484575)"><svg viewBox="0 0 375.07952880859375 242.7054901123047" height="242.7054901123047" width="375.07952880859375"><g><svg></svg></g><g><svg viewBox="0 0 375.07952880859375 242.7054901123047" height="242.7054901123047" width="375.07952880859375"><g transform="matrix(1,0,0,1,-10.220239639282227,-4.4944915771484375)"><path xmlns="http://www.w3.org/2000/svg" d="M10.22 242.706v-238.212h375.08v238.212l-87.073 0 0-1.232h85.841v-235.748h-372.616v235.748h85.841l0 1.232z" fill="#000000" fill-rule="nonzero" stroke="none" stroke-width="1" stroke-linecap="butt" stroke-linejoin="miter" stroke-miterlimit="10" stroke-dasharray="" stroke-dashoffset="0" font-family="none" font-weight="none" font-size="none" text-anchor="none" style="mix-blend-mode: normal" data-fill-palette-color="tertiary"></path><g><path xmlns="http://www.w3.org/2000/svg" d="M104.376 240.772v0c0.188 0.054 0.368 0.128 0.542 0.222 0.172 0.094 0.325 0.208 0.459 0.343 0.132 0.135 0.239 0.29 0.32 0.464 0.08 0.173 0.119 0.367 0.119 0.58v0c0 0.254-0.062 0.512-0.187 0.773-0.123 0.26-0.306 0.495-0.547 0.708-0.242 0.212-0.541 0.385-0.898 0.52-0.358 0.135-0.771 0.202-1.238 0.203v0h-1.958v-6.895h2.151c0.394 0 0.739 0.042 1.035 0.127 0.294 0.085 0.54 0.197 0.738 0.336 0.198 0.137 0.346 0.297 0.445 0.48 0.099 0.181 0.148 0.367 0.149 0.559v0c0 0.163-0.031 0.319-0.095 0.468-0.063 0.149-0.146 0.29-0.25 0.424-0.103 0.134-0.222 0.258-0.359 0.374-0.137 0.116-0.279 0.22-0.426 0.314zM102.154 241.404v2.352h0.904c0.279 0 0.517-0.037 0.713-0.11 0.197-0.073 0.356-0.169 0.478-0.287 0.122-0.118 0.211-0.252 0.266-0.401 0.054-0.148 0.081-0.299 0.081-0.453v0c0-0.191-0.037-0.356-0.112-0.494-0.076-0.139-0.182-0.252-0.32-0.341-0.139-0.09-0.303-0.157-0.493-0.2-0.191-0.044-0.403-0.066-0.636-0.066v0zM102.154 240.599h1.534c0.198-0.137 0.357-0.299 0.478-0.484 0.121-0.185 0.181-0.391 0.181-0.617v0c0-0.302-0.118-0.54-0.354-0.715-0.238-0.176-0.574-0.264-1.01-0.264v0h-0.829zM107.142 244.585v-4.989h0.923l0.16 1.488c0.044-0.082 0.089-0.166 0.137-0.252 0.046-0.086 0.093-0.169 0.141-0.249 0.046-0.081 0.09-0.154 0.131-0.22 0.041-0.066 0.076-0.12 0.104-0.163v0c0.066-0.098 0.14-0.19 0.224-0.276 0.084-0.086 0.173-0.16 0.269-0.222 0.098-0.062 0.203-0.111 0.317-0.146 0.113-0.036 0.235-0.054 0.366-0.054v0c0.091 0 0.182 0.011 0.273 0.033 0.091 0.022 0.168 0.057 0.232 0.104v0l-0.124 1.05c-0.057-0.017-0.123-0.027-0.198-0.031-0.075-0.005-0.141-0.008-0.201-0.007v0c-0.202 0-0.381 0.029-0.537 0.086-0.157 0.058-0.299 0.138-0.426 0.241-0.127 0.102-0.243 0.221-0.347 0.359-0.105 0.139-0.207 0.288-0.305 0.447v0 2.801zM115.372 243.559v0.569c-0.137 0.098-0.287 0.181-0.447 0.25-0.159 0.068-0.324 0.125-0.493 0.172-0.17 0.045-0.338 0.078-0.505 0.098-0.168 0.021-0.328 0.031-0.478 0.031v0c-0.348 0-0.672-0.053-0.972-0.16-0.301-0.107-0.562-0.263-0.782-0.47-0.221-0.207-0.394-0.462-0.519-0.765-0.126-0.303-0.189-0.651-0.189-1.043v0c0-0.418 0.071-0.795 0.212-1.134 0.141-0.339 0.33-0.627 0.567-0.863 0.236-0.238 0.511-0.421 0.823-0.549 0.312-0.128 0.638-0.193 0.977-0.193v0c0.283 0 0.545 0.046 0.788 0.139 0.243 0.093 0.453 0.23 0.631 0.412 0.177 0.182 0.316 0.41 0.416 0.682 0.1 0.272 0.15 0.589 0.15 0.951v0c0 0.087-0.004 0.181-0.011 0.279-0.008 0.099-0.021 0.196-0.041 0.291v0h-3.33c0 0.253 0.044 0.477 0.133 0.673 0.09 0.194 0.217 0.356 0.379 0.486 0.163 0.131 0.359 0.23 0.588 0.296 0.229 0.068 0.481 0.102 0.758 0.103v0c0.078 0 0.17-0.003 0.275-0.01 0.105-0.006 0.217-0.019 0.336-0.039 0.119-0.018 0.242-0.044 0.368-0.077 0.126-0.033 0.248-0.076 0.366-0.129zM112.169 241.699h2.324c0-0.229-0.029-0.429-0.086-0.601-0.059-0.172-0.139-0.317-0.239-0.434-0.1-0.116-0.217-0.202-0.351-0.26-0.132-0.058-0.276-0.087-0.43-0.087v0c-0.172 0-0.332 0.034-0.48 0.102-0.148 0.069-0.276 0.166-0.385 0.291-0.111 0.123-0.197 0.27-0.259 0.44-0.063 0.17-0.094 0.353-0.094 0.549zM120.935 243.559v0.569c-0.137 0.098-0.287 0.181-0.448 0.25-0.159 0.068-0.324 0.125-0.493 0.172-0.17 0.045-0.339 0.078-0.507 0.098-0.167 0.021-0.326 0.031-0.476 0.031v0c-0.348 0-0.673-0.053-0.973-0.16-0.299-0.107-0.56-0.263-0.781-0.47-0.221-0.207-0.394-0.462-0.52-0.765-0.125-0.303-0.187-0.651-0.187-1.043v0c0-0.418 0.071-0.795 0.212-1.134 0.14-0.339 0.329-0.627 0.566-0.863 0.236-0.238 0.511-0.421 0.823-0.549 0.312-0.128 0.638-0.193 0.978-0.193v0c0.281 0 0.544 0.046 0.786 0.139 0.244 0.093 0.455 0.23 0.632 0.412 0.177 0.182 0.316 0.41 0.417 0.682 0.1 0.272 0.15 0.589 0.15 0.951v0c0 0.087-0.004 0.181-0.012 0.279-0.008 0.099-0.021 0.196-0.04 0.291v0h-3.333c0 0.253 0.045 0.477 0.135 0.673 0.09 0.194 0.217 0.356 0.38 0.486 0.163 0.131 0.359 0.23 0.588 0.296 0.229 0.068 0.481 0.102 0.757 0.103v0c0.078 0 0.17-0.003 0.276-0.01 0.104-0.006 0.216-0.019 0.335-0.039 0.119-0.018 0.242-0.044 0.368-0.077 0.125-0.033 0.247-0.076 0.367-0.129zM117.729 241.699h2.327c0-0.229-0.03-0.429-0.089-0.601-0.058-0.172-0.137-0.317-0.237-0.434-0.1-0.116-0.217-0.202-0.351-0.26-0.134-0.058-0.277-0.087-0.43-0.087v0c-0.172 0-0.332 0.034-0.48 0.102-0.148 0.069-0.276 0.166-0.385 0.291-0.111 0.123-0.197 0.27-0.26 0.44-0.063 0.17-0.094 0.353-0.095 0.549zM122.087 244.585v-0.359l2.113-3.138 0.472-0.617v-0.094l-0.885 0.033h-1.567l0.203-0.814h3.664v0.359l-2.097 3.095-0.505 0.669v0.089l0.832-0.037h1.906l-0.202 0.814zM131.485 243.559v0.569c-0.139 0.098-0.288 0.181-0.447 0.25-0.161 0.068-0.326 0.125-0.495 0.172-0.168 0.045-0.337 0.078-0.505 0.098-0.168 0.021-0.328 0.031-0.478 0.031v0c-0.348 0-0.672-0.053-0.972-0.16-0.299-0.107-0.56-0.263-0.78-0.47-0.221-0.207-0.394-0.462-0.521-0.765-0.126-0.303-0.189-0.651-0.189-1.043v0c0-0.418 0.071-0.795 0.212-1.134 0.141-0.339 0.33-0.627 0.567-0.863 0.238-0.238 0.513-0.421 0.825-0.549 0.312-0.128 0.637-0.193 0.975-0.193v0c0.283 0 0.545 0.046 0.789 0.139 0.243 0.093 0.453 0.23 0.63 0.412 0.177 0.182 0.316 0.41 0.416 0.682 0.1 0.272 0.15 0.589 0.151 0.951v0c0 0.087-0.004 0.181-0.012 0.279-0.008 0.099-0.021 0.196-0.039 0.291v0h-3.332c0 0.253 0.045 0.477 0.135 0.673 0.089 0.194 0.215 0.356 0.378 0.486 0.163 0.131 0.359 0.23 0.588 0.296 0.23 0.068 0.482 0.102 0.757 0.103v0c0.078 0 0.17-0.003 0.276-0.01 0.105-0.006 0.218-0.019 0.337-0.039 0.119-0.018 0.242-0.044 0.366-0.077 0.126-0.033 0.249-0.076 0.368-0.129zM128.28 241.699h2.324c0-0.229-0.029-0.429-0.086-0.601-0.058-0.172-0.137-0.317-0.237-0.434-0.1-0.116-0.217-0.202-0.351-0.26-0.134-0.058-0.278-0.087-0.432-0.087v0c-0.172 0-0.332 0.034-0.48 0.102-0.146 0.069-0.275 0.166-0.385 0.291-0.109 0.123-0.195 0.27-0.259 0.44-0.063 0.17-0.094 0.353-0.094 0.549zM137.898 238.519v6.066h-1.172v-6.066h-2.234l0.154-0.829h5.559l-0.156 0.829zM141.249 244.585v-7.539h1.138v3.356c0.117-0.104 0.245-0.209 0.383-0.314 0.14-0.105 0.288-0.202 0.443-0.289 0.155-0.087 0.319-0.159 0.492-0.214 0.172-0.055 0.351-0.083 0.536-0.083v0c0.226 0 0.432 0.042 0.617 0.127 0.185 0.085 0.344 0.204 0.476 0.359 0.131 0.153 0.233 0.338 0.304 0.555 0.073 0.216 0.11 0.456 0.11 0.719v0 3.323h-1.145v-3.196c0-0.17-0.023-0.317-0.069-0.443-0.048-0.127-0.112-0.233-0.193-0.318-0.082-0.085-0.181-0.148-0.295-0.191-0.114-0.042-0.238-0.064-0.37-0.064v0c-0.231 0-0.45 0.06-0.657 0.179-0.208 0.118-0.419 0.275-0.632 0.471v0 3.562zM147.319 244.585v-4.989h0.923l0.16 1.488c0.044-0.082 0.089-0.166 0.135-0.252 0.048-0.086 0.095-0.169 0.143-0.249 0.046-0.081 0.09-0.154 0.131-0.22 0.041-0.066 0.076-0.12 0.104-0.163v0c0.066-0.098 0.14-0.19 0.223-0.276 0.082-0.086 0.172-0.16 0.27-0.222 0.098-0.062 0.203-0.111 0.316-0.146 0.112-0.036 0.234-0.054 0.366-0.054v0c0.091 0 0.182 0.011 0.274 0.033 0.09 0.022 0.166 0.057 0.23 0.104v0l-0.122 1.05c-0.057-0.017-0.123-0.027-0.198-0.031-0.075-0.005-0.142-0.008-0.203-0.007v0c-0.2 0-0.379 0.029-0.536 0.086-0.157 0.058-0.299 0.138-0.426 0.241-0.127 0.102-0.243 0.221-0.348 0.359-0.104 0.139-0.205 0.288-0.303 0.447v0 2.801zM153.577 244.679v0c-0.392 0-0.738-0.066-1.037-0.199-0.299-0.131-0.551-0.309-0.755-0.533-0.204-0.224-0.359-0.483-0.465-0.779-0.104-0.294-0.156-0.606-0.156-0.937v0c0-0.379 0.067-0.734 0.202-1.066 0.135-0.33 0.324-0.619 0.567-0.865 0.243-0.247 0.532-0.441 0.867-0.584 0.335-0.143 0.704-0.214 1.107-0.214v0c0.392 0 0.739 0.066 1.041 0.198 0.301 0.131 0.553 0.31 0.757 0.536 0.203 0.226 0.357 0.488 0.463 0.785 0.105 0.296 0.158 0.608 0.158 0.938v0c0 0.383-0.068 0.739-0.205 1.07-0.137 0.332-0.328 0.619-0.572 0.864-0.244 0.245-0.535 0.438-0.871 0.576-0.335 0.14-0.702 0.21-1.101 0.21zM153.776 243.864v0c0.2 0 0.384-0.041 0.549-0.124 0.167-0.084 0.31-0.2 0.428-0.349 0.119-0.149 0.212-0.327 0.277-0.533 0.067-0.207 0.1-0.436 0.101-0.687v0c0-0.245-0.032-0.479-0.097-0.701-0.064-0.224-0.158-0.421-0.281-0.592-0.122-0.171-0.27-0.307-0.445-0.408-0.176-0.102-0.376-0.152-0.6-0.153v0c-0.203 0-0.388 0.042-0.555 0.127-0.166 0.084-0.308 0.201-0.426 0.353-0.117 0.15-0.208 0.33-0.274 0.538-0.067 0.209-0.1 0.438-0.1 0.684v0c0 0.248 0.032 0.484 0.097 0.708 0.064 0.222 0.158 0.418 0.281 0.587 0.122 0.17 0.271 0.304 0.447 0.403 0.175 0.098 0.374 0.146 0.598 0.147zM157.596 242.923v-3.327h1.139v3.148c0 0.161 0.022 0.306 0.065 0.435 0.044 0.131 0.105 0.243 0.184 0.338 0.078 0.094 0.173 0.166 0.283 0.218 0.109 0.053 0.23 0.079 0.362 0.079v0c0.113 0 0.224-0.019 0.332-0.058 0.108-0.037 0.212-0.087 0.312-0.149 0.1-0.06 0.196-0.13 0.287-0.21 0.091-0.081 0.177-0.165 0.258-0.252v0-3.549h1.139v4.989h-0.921l-0.169-0.843c-0.113 0.104-0.236 0.211-0.369 0.322-0.131 0.112-0.27 0.213-0.418 0.305-0.148 0.09-0.304 0.164-0.468 0.223-0.164 0.058-0.336 0.087-0.515 0.087v0c-0.204 0-0.397-0.041-0.578-0.123-0.182-0.081-0.342-0.197-0.478-0.347-0.136-0.152-0.245-0.335-0.326-0.552-0.08-0.216-0.119-0.461-0.119-0.734zM166.038 244.928h-1.139c-0.072 0.041-0.147 0.088-0.226 0.14-0.078 0.054-0.152 0.113-0.22 0.178-0.067 0.064-0.122 0.135-0.165 0.212-0.044 0.077-0.066 0.159-0.066 0.246v0c0 0.094 0.027 0.182 0.081 0.264 0.055 0.081 0.137 0.152 0.245 0.214 0.108 0.06 0.242 0.109 0.403 0.147 0.159 0.036 0.343 0.054 0.551 0.054v0c0.238 0 0.449-0.024 0.634-0.072 0.185-0.048 0.341-0.111 0.468-0.19 0.127-0.08 0.224-0.172 0.29-0.276 0.067-0.103 0.1-0.211 0.1-0.324v0c0-0.1-0.026-0.188-0.077-0.262-0.05-0.073-0.118-0.135-0.205-0.185-0.086-0.05-0.187-0.087-0.302-0.11-0.117-0.024-0.241-0.037-0.372-0.036zM164.203 244.833v0c-0.217-0.075-0.394-0.174-0.53-0.299-0.136-0.123-0.204-0.27-0.204-0.439v0c0-0.103 0.028-0.202 0.082-0.297 0.054-0.094 0.126-0.183 0.216-0.268 0.09-0.085 0.191-0.166 0.303-0.243 0.113-0.076 0.228-0.15 0.345-0.223v0c-0.195-0.084-0.361-0.184-0.497-0.301-0.136-0.116-0.247-0.243-0.334-0.382-0.086-0.137-0.149-0.283-0.189-0.437-0.039-0.153-0.058-0.308-0.057-0.465v0c0-0.302 0.064-0.574 0.192-0.817 0.128-0.243 0.299-0.45 0.511-0.622 0.211-0.173 0.452-0.306 0.725-0.399 0.271-0.093 0.551-0.139 0.838-0.139v0c0.217 0 0.43 0.027 0.64 0.081 0.211 0.053 0.388 0.125 0.532 0.216v0c0.1-0.057 0.234-0.104 0.401-0.143 0.166-0.04 0.338-0.06 0.516-0.06v0h0.8l-0.202 0.81h-1.012c0.019 0.019 0.048 0.056 0.085 0.11 0.039 0.055 0.075 0.124 0.11 0.206 0.033 0.081 0.064 0.174 0.09 0.279 0.027 0.105 0.04 0.217 0.041 0.336v0c0 0.265-0.062 0.511-0.187 0.738-0.123 0.227-0.288 0.425-0.494 0.592-0.206 0.168-0.441 0.3-0.705 0.395-0.265 0.096-0.537 0.145-0.817 0.144v0c-0.059 0-0.118-0.003-0.178-0.007-0.06-0.005-0.122-0.011-0.185-0.018v0c-0.05 0.032-0.103 0.067-0.16 0.106-0.057 0.04-0.108 0.082-0.154 0.128-0.048 0.046-0.087 0.096-0.117 0.148-0.032 0.054-0.048 0.109-0.049 0.166v0c0 0.096 0.044 0.175 0.133 0.235 0.087 0.059 0.208 0.089 0.363 0.089v0h1.27c0.226 0 0.443 0.028 0.651 0.082 0.208 0.055 0.392 0.135 0.552 0.239 0.158 0.105 0.285 0.234 0.379 0.388 0.096 0.152 0.145 0.324 0.145 0.518v0c0 0.217-0.062 0.439-0.187 0.667-0.123 0.227-0.306 0.434-0.547 0.621-0.242 0.186-0.54 0.339-0.895 0.457-0.355 0.117-0.763 0.175-1.224 0.175v0c-0.294 0-0.568-0.026-0.821-0.077-0.252-0.051-0.471-0.125-0.657-0.222-0.188-0.095-0.334-0.211-0.439-0.347-0.104-0.136-0.156-0.289-0.156-0.458v0c0-0.15 0.039-0.29 0.117-0.421 0.078-0.128 0.174-0.246 0.287-0.352 0.113-0.107 0.231-0.2 0.353-0.282 0.122-0.082 0.229-0.152 0.32-0.208zM164.386 241.329v0c0 0.159 0.028 0.307 0.083 0.443 0.054 0.136 0.13 0.256 0.229 0.359 0.099 0.102 0.215 0.181 0.349 0.237 0.134 0.057 0.28 0.085 0.44 0.085v0c0.15 0 0.292-0.026 0.424-0.077 0.132-0.053 0.247-0.126 0.343-0.22 0.098-0.094 0.175-0.208 0.231-0.341 0.057-0.134 0.085-0.281 0.085-0.443v0c0-0.161-0.028-0.308-0.083-0.444-0.055-0.135-0.132-0.252-0.231-0.351-0.098-0.099-0.214-0.177-0.349-0.233-0.135-0.057-0.283-0.085-0.444-0.085v0c-0.15 0-0.29 0.025-0.42 0.076-0.131 0.05-0.245 0.121-0.341 0.214-0.098 0.094-0.175 0.206-0.231 0.337-0.057 0.132-0.085 0.28-0.085 0.443zM169.388 244.585v-7.539h1.139v3.356c0.116-0.104 0.243-0.209 0.383-0.314 0.14-0.105 0.287-0.202 0.442-0.289 0.155-0.087 0.32-0.159 0.493-0.214 0.172-0.055 0.351-0.083 0.536-0.083v0c0.226 0 0.432 0.042 0.617 0.127 0.185 0.085 0.343 0.204 0.474 0.359 0.132 0.153 0.234 0.338 0.306 0.555 0.072 0.216 0.108 0.456 0.108 0.719v0 3.323h-1.143v-3.196c0-0.17-0.024-0.317-0.071-0.443-0.046-0.127-0.111-0.233-0.193-0.318-0.081-0.085-0.179-0.148-0.293-0.191-0.114-0.042-0.238-0.064-0.37-0.064v0c-0.233 0-0.452 0.06-0.659 0.179-0.207 0.118-0.417 0.275-0.63 0.471v0 3.562zM177.693 244.585v-6.895h2.451c0.605 0 1.138 0.082 1.6 0.245 0.461 0.163 0.847 0.389 1.159 0.676 0.311 0.287 0.545 0.626 0.703 1.018 0.158 0.392 0.237 0.817 0.237 1.276v0c0 0.288-0.032 0.58-0.096 0.875-0.064 0.294-0.164 0.578-0.299 0.85-0.135 0.271-0.306 0.526-0.513 0.763-0.207 0.239-0.454 0.447-0.742 0.625-0.287 0.177-0.614 0.316-0.983 0.416-0.369 0.1-0.781 0.15-1.235 0.151v0zM178.861 238.519v5.237h1.289c0.42 0 0.786-0.069 1.097-0.208 0.31-0.14 0.567-0.33 0.771-0.571 0.204-0.24 0.357-0.522 0.457-0.846 0.1-0.325 0.15-0.674 0.15-1.047v0c0-0.409-0.058-0.771-0.173-1.087-0.117-0.317-0.287-0.586-0.511-0.805-0.225-0.22-0.5-0.387-0.827-0.502-0.326-0.114-0.698-0.172-1.114-0.171v0zM187.96 243.85v0c-0.081 0.069-0.179 0.152-0.293 0.247-0.114 0.096-0.242 0.188-0.381 0.274-0.14 0.086-0.292 0.159-0.457 0.217-0.164 0.06-0.337 0.091-0.519 0.091v0c-0.186 0-0.358-0.034-0.516-0.102-0.158-0.067-0.296-0.161-0.415-0.282-0.117-0.121-0.209-0.265-0.277-0.433-0.067-0.167-0.1-0.353-0.1-0.557v0c0-0.213 0.043-0.422 0.129-0.627 0.086-0.203 0.231-0.385 0.433-0.545 0.202-0.159 0.469-0.288 0.802-0.388 0.333-0.099 0.743-0.148 1.232-0.148v0h0.345v-0.385c0-0.139-0.024-0.263-0.072-0.372-0.048-0.111-0.113-0.205-0.196-0.284-0.085-0.078-0.186-0.138-0.305-0.179-0.118-0.04-0.249-0.06-0.393-0.06v0c-0.113 0-0.234 0.013-0.362 0.039-0.128 0.027-0.256 0.064-0.382 0.112-0.125 0.046-0.247 0.102-0.366 0.165-0.119 0.064-0.226 0.134-0.32 0.21v0l-0.085-0.046-0.216-0.79c0.379-0.198 0.732-0.332 1.058-0.401 0.326-0.069 0.632-0.104 0.918-0.104v0c0.296 0 0.558 0.03 0.788 0.091 0.231 0.059 0.427 0.15 0.586 0.273 0.161 0.125 0.282 0.282 0.364 0.472 0.084 0.189 0.125 0.414 0.126 0.675v0 2.305c0 0.048 0.004 0.1 0.011 0.156 0.008 0.057 0.023 0.11 0.047 0.16 0.024 0.05 0.059 0.093 0.104 0.127 0.046 0.035 0.107 0.052 0.181 0.053v0c0.044 0 0.097-0.006 0.16-0.02 0.063-0.013 0.126-0.033 0.189-0.061v0 0.564c-0.17 0.116-0.339 0.208-0.507 0.278-0.167 0.069-0.331 0.104-0.492 0.104v0c-0.125 0-0.233-0.024-0.324-0.071-0.091-0.046-0.168-0.108-0.231-0.185-0.063-0.077-0.116-0.165-0.158-0.264-0.042-0.099-0.078-0.202-0.106-0.309zM187.943 243.243v-1.091h-0.297c-0.326 0-0.589 0.022-0.788 0.068-0.199 0.046-0.354 0.109-0.465 0.188-0.109 0.08-0.182 0.172-0.218 0.278-0.036 0.105-0.054 0.219-0.054 0.341v0c0 0.128 0.019 0.242 0.056 0.339 0.037 0.096 0.088 0.178 0.153 0.245 0.066 0.066 0.142 0.116 0.229 0.151 0.087 0.035 0.181 0.052 0.281 0.052v0c0.076 0 0.154-0.009 0.235-0.027 0.082-0.017 0.168-0.047 0.259-0.091 0.089-0.045 0.183-0.103 0.283-0.175 0.1-0.072 0.209-0.164 0.326-0.278zM191.123 243.206v-2.796h-1.002l0.085-0.536c0.248-0.063 0.447-0.134 0.595-0.212 0.149-0.078 0.273-0.175 0.372-0.289 0.099-0.114 0.185-0.254 0.258-0.418 0.073-0.164 0.159-0.364 0.257-0.6v0h0.545v1.241h1.793l-0.203 0.814h-1.557v2.569c0 0.154 0.022 0.284 0.067 0.389 0.044 0.105 0.106 0.191 0.187 0.257 0.082 0.066 0.181 0.113 0.295 0.142 0.114 0.031 0.243 0.046 0.388 0.047v0c0.139 0 0.276-0.013 0.412-0.039 0.136-0.024 0.265-0.06 0.388-0.108v0 0.574c-0.213 0.144-0.441 0.252-0.685 0.326-0.243 0.075-0.488 0.112-0.736 0.112v0c-0.474 0-0.836-0.128-1.085-0.386-0.249-0.258-0.374-0.621-0.374-1.087zM197.985 243.85v0c-0.082 0.069-0.181 0.152-0.295 0.247-0.114 0.096-0.242 0.188-0.382 0.274-0.139 0.086-0.291 0.159-0.457 0.217-0.164 0.06-0.337 0.091-0.518 0.091v0c-0.185 0-0.357-0.034-0.517-0.102-0.158-0.067-0.296-0.161-0.412-0.282-0.118-0.121-0.211-0.265-0.28-0.433-0.067-0.167-0.1-0.353-0.1-0.557v0c0-0.213 0.043-0.422 0.129-0.627 0.086-0.203 0.231-0.385 0.434-0.545 0.202-0.159 0.469-0.288 0.802-0.388 0.333-0.099 0.744-0.148 1.233-0.148v0h0.343v-0.385c0-0.139-0.024-0.263-0.071-0.372-0.046-0.111-0.112-0.205-0.197-0.284-0.085-0.078-0.186-0.138-0.304-0.179-0.117-0.04-0.248-0.06-0.393-0.06v0c-0.113 0-0.234 0.013-0.363 0.039-0.128 0.027-0.255 0.064-0.379 0.112-0.126 0.046-0.249 0.102-0.369 0.165-0.119 0.064-0.226 0.134-0.319 0.21v0l-0.085-0.046-0.216-0.79c0.379-0.198 0.732-0.332 1.058-0.401 0.326-0.069 0.632-0.104 0.917-0.104v0c0.296 0 0.558 0.03 0.789 0.091 0.231 0.059 0.427 0.15 0.586 0.273 0.161 0.125 0.282 0.282 0.364 0.472 0.084 0.189 0.125 0.414 0.125 0.675v0 2.305c0 0.048 0.004 0.1 0.012 0.156 0.008 0.057 0.024 0.11 0.048 0.16 0.023 0.05 0.057 0.093 0.102 0.127 0.046 0.035 0.107 0.052 0.181 0.053v0c0.045 0 0.098-0.006 0.16-0.02 0.063-0.013 0.126-0.033 0.189-0.061v0 0.564c-0.17 0.116-0.338 0.208-0.505 0.278-0.168 0.069-0.333 0.104-0.493 0.104v0c-0.125 0-0.233-0.024-0.324-0.071-0.091-0.046-0.168-0.108-0.231-0.185-0.062-0.077-0.114-0.165-0.156-0.264-0.042-0.099-0.078-0.202-0.106-0.309zM197.965 243.243v-1.091h-0.297c-0.326 0-0.589 0.022-0.788 0.068-0.199 0.046-0.353 0.109-0.462 0.188-0.111 0.08-0.184 0.172-0.22 0.278-0.036 0.105-0.054 0.219-0.054 0.341v0c0 0.128 0.019 0.242 0.056 0.339 0.039 0.096 0.09 0.178 0.154 0.245 0.064 0.066 0.14 0.116 0.227 0.151 0.087 0.035 0.182 0.052 0.284 0.052v0c0.075 0 0.153-0.009 0.235-0.027 0.081-0.017 0.166-0.047 0.256-0.091 0.089-0.045 0.183-0.103 0.284-0.175 0.102-0.072 0.21-0.164 0.325-0.278zM201.028 246.4l-0.376-0.249c0.113-0.122 0.219-0.25 0.318-0.383 0.099-0.134 0.188-0.267 0.266-0.401 0.078-0.132 0.144-0.264 0.197-0.395 0.054-0.13 0.093-0.254 0.117-0.374v0c-0.037-0.037-0.084-0.075-0.139-0.114-0.055-0.04-0.114-0.076-0.175-0.11-0.063-0.032-0.127-0.062-0.193-0.088-0.067-0.027-0.13-0.047-0.189-0.06v0c-0.026-0.05-0.044-0.107-0.054-0.172-0.012-0.064-0.017-0.123-0.017-0.175v0c0-0.098 0.019-0.194 0.058-0.289 0.037-0.096 0.091-0.182 0.16-0.256 0.068-0.076 0.151-0.136 0.249-0.182 0.098-0.046 0.206-0.069 0.323-0.069v0c0.098 0 0.195 0.019 0.293 0.056 0.096 0.039 0.184 0.098 0.264 0.177 0.078 0.08 0.141 0.182 0.187 0.307 0.048 0.123 0.071 0.273 0.072 0.449v0c0 0.157-0.024 0.327-0.074 0.511-0.049 0.184-0.127 0.375-0.235 0.574-0.108 0.199-0.249 0.403-0.422 0.613-0.172 0.211-0.382 0.421-0.63 0.63zM207.126 244.585h-1.002v-6.895h1.648l2.931 4.391 0.484 0.908h0.095l-0.062-1.026v-4.273h1.002v6.895h-1.096l-3.524-5.257-0.443-0.871h-0.093l0.06 1.003zM216.054 244.679v0c-0.393 0-0.739-0.066-1.039-0.199-0.299-0.131-0.551-0.309-0.755-0.533-0.203-0.224-0.357-0.483-0.463-0.779-0.105-0.294-0.158-0.606-0.158-0.937v0c0-0.379 0.067-0.734 0.202-1.066 0.135-0.33 0.324-0.619 0.567-0.865 0.244-0.247 0.534-0.441 0.869-0.584 0.335-0.143 0.704-0.214 1.107-0.214v0c0.392 0 0.738 0.066 1.038 0.198 0.301 0.131 0.553 0.31 0.758 0.536 0.204 0.226 0.359 0.488 0.464 0.785 0.104 0.296 0.156 0.608 0.157 0.938v0c0 0.383-0.068 0.739-0.205 1.07-0.136 0.332-0.326 0.619-0.57 0.864-0.245 0.245-0.536 0.438-0.871 0.576-0.335 0.14-0.702 0.21-1.101 0.21zM216.251 243.864v0c0.2 0 0.384-0.041 0.551-0.124 0.166-0.084 0.308-0.2 0.428-0.349 0.119-0.149 0.212-0.327 0.277-0.533 0.066-0.207 0.098-0.436 0.099-0.687v0c0-0.245-0.032-0.479-0.097-0.701-0.064-0.224-0.157-0.421-0.279-0.592-0.122-0.171-0.271-0.307-0.447-0.408-0.176-0.102-0.375-0.152-0.598-0.153v0c-0.204 0-0.389 0.042-0.555 0.127-0.166 0.084-0.308 0.201-0.426 0.353-0.118 0.15-0.21 0.33-0.276 0.538-0.066 0.209-0.098 0.438-0.098 0.684v0c0 0.248 0.032 0.484 0.096 0.708 0.064 0.222 0.157 0.418 0.28 0.587 0.122 0.17 0.271 0.304 0.447 0.403 0.176 0.098 0.375 0.146 0.598 0.147zM220.495 243.206v-2.796h-1.003l0.085-0.536c0.248-0.063 0.447-0.134 0.596-0.212 0.149-0.078 0.273-0.175 0.372-0.289 0.099-0.114 0.185-0.254 0.258-0.418 0.075-0.164 0.16-0.364 0.256-0.6v0h0.546v1.241h1.794l-0.202 0.814h-1.557v2.569c0 0.154 0.022 0.284 0.065 0.389 0.044 0.105 0.106 0.191 0.187 0.257 0.082 0.066 0.181 0.113 0.295 0.142 0.114 0.031 0.243 0.046 0.387 0.047v0c0.139 0 0.276-0.013 0.413-0.039 0.136-0.024 0.265-0.06 0.387-0.108v0 0.574c-0.213 0.144-0.441 0.252-0.684 0.326-0.243 0.075-0.488 0.112-0.736 0.112v0c-0.473 0-0.835-0.128-1.085-0.386-0.249-0.258-0.374-0.621-0.374-1.087zM229.596 238.519v6.066h-1.172v-6.066h-2.236l0.156-0.829h5.557l-0.154 0.829zM232.946 244.585v-7.539h1.139v3.356c0.116-0.104 0.243-0.209 0.383-0.314 0.14-0.105 0.288-0.202 0.444-0.289 0.154-0.087 0.318-0.159 0.491-0.214 0.172-0.055 0.351-0.083 0.536-0.083v0c0.226 0 0.432 0.042 0.617 0.127 0.185 0.085 0.343 0.204 0.474 0.359 0.132 0.153 0.234 0.338 0.306 0.555 0.072 0.216 0.108 0.456 0.108 0.719v0 3.323h-1.143v-3.196c0-0.17-0.024-0.317-0.071-0.443-0.046-0.127-0.111-0.233-0.193-0.318-0.081-0.085-0.179-0.148-0.293-0.191-0.114-0.042-0.238-0.064-0.37-0.064v0c-0.233 0-0.452 0.06-0.659 0.179-0.207 0.118-0.417 0.275-0.63 0.471v0 3.562zM239.017 244.585v-4.989h0.921l0.16 1.488c0.044-0.082 0.089-0.166 0.137-0.252 0.048-0.086 0.094-0.169 0.141-0.249 0.048-0.081 0.092-0.154 0.133-0.22 0.04-0.066 0.074-0.12 0.102-0.163v0c0.067-0.098 0.141-0.19 0.224-0.276 0.084-0.086 0.174-0.16 0.271-0.222 0.096-0.062 0.201-0.111 0.315-0.146 0.113-0.036 0.236-0.054 0.368-0.054v0c0.09 0 0.181 0.011 0.271 0.033 0.091 0.022 0.168 0.057 0.232 0.104v0l-0.124 1.05c-0.057-0.017-0.122-0.027-0.196-0.031-0.076-0.005-0.143-0.008-0.203-0.007v0c-0.2 0-0.379 0.029-0.535 0.086-0.157 0.058-0.299 0.138-0.426 0.241-0.127 0.102-0.243 0.221-0.349 0.359-0.105 0.139-0.206 0.288-0.303 0.447v0 2.801zM245.275 244.679v0c-0.392 0-0.738-0.066-1.039-0.199-0.299-0.131-0.551-0.309-0.753-0.533-0.204-0.224-0.359-0.483-0.465-0.779-0.105-0.294-0.158-0.606-0.158-0.937v0c0-0.379 0.067-0.734 0.203-1.066 0.135-0.33 0.324-0.619 0.566-0.865 0.244-0.247 0.534-0.441 0.87-0.584 0.335-0.143 0.704-0.214 1.106-0.214v0c0.392 0 0.738 0.066 1.039 0.198 0.302 0.131 0.554 0.31 0.757 0.536 0.204 0.226 0.359 0.488 0.465 0.785 0.105 0.296 0.158 0.608 0.158 0.938v0c0 0.383-0.069 0.739-0.206 1.07-0.136 0.332-0.326 0.619-0.571 0.864-0.245 0.245-0.536 0.438-0.871 0.576-0.335 0.14-0.702 0.21-1.101 0.21zM245.472 243.864v0c0.202 0 0.385-0.041 0.551-0.124 0.166-0.084 0.308-0.2 0.428-0.349 0.119-0.149 0.212-0.327 0.278-0.533 0.066-0.207 0.098-0.436 0.098-0.687v0c0-0.245-0.032-0.479-0.096-0.701-0.064-0.224-0.157-0.421-0.28-0.592-0.122-0.171-0.271-0.307-0.447-0.408-0.176-0.102-0.375-0.152-0.598-0.153v0c-0.204 0-0.389 0.042-0.555 0.127-0.166 0.084-0.308 0.201-0.426 0.353-0.117 0.15-0.209 0.33-0.275 0.538-0.066 0.209-0.098 0.438-0.099 0.684v0c0 0.248 0.032 0.484 0.097 0.708 0.064 0.222 0.157 0.418 0.279 0.587 0.123 0.17 0.272 0.304 0.447 0.403 0.176 0.098 0.375 0.146 0.598 0.147zM249.294 242.923v-3.327h1.139v3.148c0 0.161 0.022 0.306 0.066 0.435 0.044 0.131 0.105 0.243 0.183 0.338 0.078 0.094 0.172 0.166 0.281 0.218 0.111 0.053 0.231 0.079 0.362 0.079v0c0.113 0 0.224-0.019 0.334-0.058 0.108-0.037 0.212-0.087 0.312-0.149 0.1-0.06 0.196-0.13 0.287-0.21 0.091-0.081 0.177-0.165 0.259-0.252v0-3.549h1.139v4.989h-0.924l-0.167-0.843c-0.113 0.104-0.236 0.211-0.368 0.322-0.131 0.112-0.27 0.213-0.419 0.305-0.148 0.09-0.304 0.164-0.468 0.223-0.164 0.058-0.336 0.087-0.515 0.087v0c-0.204 0-0.398-0.041-0.58-0.123-0.181-0.081-0.341-0.197-0.478-0.347-0.136-0.152-0.244-0.335-0.324-0.552-0.08-0.216-0.119-0.461-0.119-0.734zM257.736 244.928h-1.139c-0.072 0.041-0.147 0.088-0.226 0.14-0.078 0.054-0.152 0.113-0.219 0.178-0.067 0.064-0.123 0.135-0.168 0.212-0.044 0.077-0.066 0.159-0.066 0.246v0c0 0.094 0.028 0.182 0.083 0.264 0.055 0.081 0.137 0.152 0.245 0.214 0.108 0.06 0.242 0.109 0.403 0.147 0.159 0.036 0.342 0.054 0.549 0.054v0c0.239 0 0.451-0.024 0.636-0.072 0.185-0.048 0.341-0.111 0.469-0.19 0.127-0.08 0.224-0.172 0.289-0.276 0.066-0.103 0.098-0.211 0.098-0.324v0c0-0.1-0.025-0.188-0.075-0.262-0.05-0.073-0.118-0.135-0.204-0.185-0.086-0.05-0.188-0.087-0.305-0.11-0.116-0.024-0.239-0.037-0.37-0.036zM255.899 244.833v0c-0.216-0.075-0.392-0.174-0.528-0.299-0.136-0.123-0.204-0.27-0.204-0.439v0c0-0.103 0.027-0.202 0.081-0.297 0.055-0.094 0.128-0.183 0.218-0.268 0.089-0.085 0.19-0.166 0.302-0.243 0.113-0.076 0.227-0.15 0.343-0.223v0c-0.194-0.084-0.359-0.184-0.495-0.301-0.136-0.116-0.248-0.243-0.335-0.382-0.086-0.137-0.148-0.283-0.187-0.437-0.04-0.153-0.06-0.308-0.06-0.465v0c0-0.302 0.064-0.574 0.193-0.817 0.128-0.243 0.299-0.45 0.51-0.622 0.212-0.173 0.454-0.306 0.725-0.399 0.271-0.093 0.551-0.139 0.84-0.139v0c0.216 0 0.429 0.027 0.64 0.081 0.211 0.053 0.388 0.125 0.532 0.216v0c0.1-0.057 0.233-0.104 0.399-0.143 0.167-0.04 0.34-0.06 0.519-0.06v0h0.8l-0.203 0.81h-1.012c0.019 0.019 0.048 0.056 0.085 0.11 0.037 0.055 0.073 0.124 0.108 0.206 0.035 0.081 0.066 0.174 0.093 0.279 0.027 0.105 0.04 0.217 0.04 0.336v0c0 0.265-0.062 0.511-0.187 0.738-0.123 0.227-0.288 0.425-0.493 0.592-0.206 0.168-0.441 0.3-0.706 0.395-0.266 0.096-0.538 0.145-0.817 0.144v0c-0.059 0-0.119-0.003-0.179-0.007-0.059-0.005-0.12-0.011-0.183-0.018v0c-0.05 0.032-0.103 0.067-0.16 0.106-0.057 0.04-0.109 0.082-0.156 0.128-0.046 0.046-0.085 0.096-0.118 0.148-0.031 0.054-0.046 0.109-0.046 0.166v0c0 0.096 0.044 0.175 0.131 0.235 0.089 0.059 0.209 0.089 0.362 0.089v0h1.272c0.225 0 0.442 0.028 0.652 0.082 0.208 0.055 0.391 0.135 0.549 0.239 0.159 0.105 0.287 0.234 0.382 0.388 0.096 0.152 0.145 0.324 0.144 0.518v0c0 0.217-0.062 0.439-0.187 0.667-0.123 0.227-0.306 0.434-0.547 0.621-0.242 0.186-0.54 0.339-0.895 0.457-0.355 0.117-0.763 0.175-1.223 0.175v0c-0.294 0-0.568-0.026-0.821-0.077-0.253-0.051-0.473-0.125-0.66-0.222-0.186-0.095-0.332-0.211-0.437-0.347-0.105-0.136-0.158-0.289-0.158-0.458v0c0-0.15 0.039-0.29 0.117-0.421 0.078-0.128 0.174-0.246 0.288-0.352 0.113-0.107 0.231-0.2 0.352-0.282 0.123-0.082 0.23-0.152 0.32-0.208zM256.084 241.329v0c0 0.159 0.027 0.307 0.081 0.443 0.055 0.136 0.132 0.256 0.231 0.359 0.099 0.102 0.215 0.181 0.349 0.237 0.132 0.057 0.279 0.085 0.44 0.085v0c0.15 0 0.292-0.026 0.424-0.077 0.131-0.053 0.245-0.126 0.343-0.22 0.098-0.094 0.175-0.208 0.231-0.341 0.055-0.134 0.083-0.281 0.083-0.443v0c0-0.161-0.027-0.308-0.081-0.444-0.055-0.135-0.132-0.252-0.231-0.351-0.099-0.099-0.216-0.177-0.351-0.233-0.135-0.057-0.282-0.085-0.441-0.085v0c-0.15 0-0.291 0.025-0.422 0.076-0.13 0.05-0.243 0.121-0.342 0.214-0.096 0.094-0.173 0.206-0.229 0.337-0.057 0.132-0.085 0.28-0.085 0.443zM261.086 244.585v-7.539h1.139v3.356c0.116-0.104 0.243-0.209 0.383-0.314 0.139-0.105 0.286-0.202 0.442-0.289 0.155-0.087 0.319-0.159 0.491-0.214 0.173-0.055 0.353-0.083 0.538-0.083v0c0.225 0 0.43 0.042 0.615 0.127 0.185 0.085 0.344 0.204 0.476 0.359 0.132 0.153 0.234 0.338 0.306 0.555 0.072 0.216 0.108 0.456 0.108 0.719v0 3.323h-1.143v-3.196c0-0.17-0.024-0.317-0.071-0.443-0.048-0.127-0.112-0.233-0.193-0.318-0.082-0.085-0.181-0.148-0.294-0.191-0.114-0.042-0.237-0.064-0.369-0.064v0c-0.233 0-0.452 0.06-0.659 0.179-0.207 0.118-0.417 0.275-0.63 0.471v0 3.562zM272.087 238.519v6.066h-1.171v-6.066h-2.236l0.156-0.829h5.557l-0.155 0.829zM275.433 244.585v-4.989h1.143v4.989zM276.002 238.613v0c-0.1 0-0.192-0.017-0.276-0.05-0.082-0.032-0.154-0.076-0.215-0.133-0.062-0.057-0.109-0.124-0.141-0.202-0.033-0.078-0.05-0.163-0.05-0.254v0c0-0.094 0.018-0.181 0.054-0.263 0.036-0.08 0.086-0.15 0.15-0.212 0.064-0.06 0.14-0.108 0.227-0.142 0.086-0.035 0.179-0.052 0.28-0.052v0c0.096 0 0.186 0.017 0.268 0.052 0.081 0.035 0.152 0.081 0.212 0.139 0.059 0.058 0.106 0.127 0.141 0.206 0.035 0.081 0.052 0.166 0.052 0.256v0c0 0.095-0.018 0.182-0.054 0.262-0.036 0.08-0.086 0.148-0.151 0.206-0.064 0.059-0.139 0.105-0.223 0.137-0.085 0.033-0.176 0.05-0.274 0.05zM278.157 244.585v-4.989h0.923l0.16 0.852c0.109-0.1 0.232-0.206 0.368-0.318 0.137-0.111 0.284-0.212 0.44-0.304 0.154-0.094 0.315-0.171 0.483-0.232 0.168-0.062 0.337-0.093 0.505-0.092v0c0.152 0 0.298 0.024 0.44 0.073 0.14 0.049 0.27 0.116 0.389 0.201 0.119 0.085 0.225 0.186 0.316 0.302 0.091 0.118 0.162 0.248 0.212 0.39v0c0.122-0.104 0.251-0.213 0.386-0.328 0.135-0.114 0.279-0.218 0.432-0.312 0.154-0.095 0.317-0.173 0.487-0.234 0.171-0.062 0.353-0.093 0.548-0.092v0c0.233 0 0.441 0.046 0.626 0.137 0.185 0.091 0.343 0.216 0.474 0.374 0.13 0.158 0.23 0.345 0.301 0.561 0.071 0.215 0.106 0.447 0.106 0.697v0 3.313h-1.145v-3.186c0-0.316-0.08-0.566-0.239-0.749-0.161-0.184-0.375-0.276-0.644-0.276v0c-0.113 0-0.221 0.017-0.324 0.05-0.102 0.032-0.201 0.077-0.298 0.135-0.096 0.059-0.193 0.129-0.291 0.21-0.098 0.081-0.198 0.169-0.301 0.264v0c0.006 0.037 0.01 0.075 0.009 0.112 0 0.039 0 0.081 0 0.127v0 3.313h-1.139v-3.186c0-0.157-0.022-0.299-0.065-0.425-0.045-0.127-0.107-0.235-0.185-0.324-0.078-0.09-0.172-0.158-0.282-0.205-0.111-0.048-0.231-0.071-0.362-0.071v0c-0.111 0-0.216 0.017-0.316 0.05-0.1 0.032-0.198 0.077-0.293 0.135-0.096 0.059-0.192 0.128-0.287 0.206-0.096 0.078-0.195 0.164-0.295 0.259v0 3.561zM291.433 243.559v0.569c-0.139 0.098-0.288 0.181-0.447 0.25-0.161 0.068-0.326 0.125-0.496 0.172-0.17 0.045-0.338 0.078-0.505 0.098-0.168 0.021-0.328 0.031-0.478 0.031v0c-0.348 0-0.672-0.053-0.971-0.16-0.299-0.107-0.56-0.263-0.781-0.47-0.222-0.207-0.396-0.462-0.52-0.765-0.126-0.303-0.189-0.651-0.189-1.043v0c0-0.418 0.071-0.795 0.212-1.134 0.141-0.339 0.33-0.627 0.567-0.863 0.238-0.238 0.512-0.421 0.823-0.549 0.312-0.128 0.638-0.193 0.977-0.193v0c0.283 0 0.545 0.046 0.788 0.139 0.243 0.093 0.453 0.23 0.63 0.412 0.177 0.182 0.316 0.41 0.417 0.682 0.1 0.272 0.15 0.589 0.15 0.951v0c0 0.087-0.004 0.181-0.011 0.279-0.008 0.099-0.021 0.196-0.041 0.291v0h-3.33c0 0.253 0.045 0.477 0.134 0.673 0.089 0.194 0.215 0.356 0.378 0.486 0.163 0.131 0.359 0.23 0.588 0.296 0.229 0.068 0.481 0.102 0.758 0.103v0c0.078 0 0.17-0.003 0.275-0.01 0.105-0.006 0.218-0.019 0.337-0.039 0.118-0.018 0.24-0.044 0.367-0.077 0.126-0.033 0.249-0.076 0.368-0.129zM288.228 241.699h2.324c0-0.229-0.029-0.429-0.087-0.601-0.058-0.172-0.137-0.317-0.237-0.434-0.102-0.116-0.218-0.202-0.351-0.26-0.134-0.058-0.278-0.087-0.431-0.087v0c-0.172 0-0.332 0.034-0.48 0.102-0.148 0.069-0.276 0.166-0.386 0.291-0.109 0.123-0.195 0.27-0.258 0.44-0.063 0.17-0.094 0.353-0.094 0.549zM294.137 242.09h-0.823l-0.216-4.4h1.251zM293.732 244.679v0c-0.109 0-0.212-0.021-0.308-0.064-0.095-0.042-0.178-0.099-0.249-0.169-0.071-0.071-0.127-0.154-0.167-0.249-0.04-0.096-0.06-0.198-0.06-0.304v0c0-0.109 0.021-0.213 0.063-0.313 0.042-0.099 0.1-0.186 0.172-0.26 0.072-0.073 0.157-0.131 0.254-0.173 0.096-0.042 0.2-0.064 0.311-0.064v0c0.109 0 0.212 0.021 0.308 0.064 0.095 0.042 0.178 0.1 0.249 0.173 0.071 0.075 0.127 0.161 0.167 0.258 0.04 0.096 0.06 0.2 0.06 0.311v0c0 0.109-0.021 0.212-0.064 0.308-0.042 0.095-0.1 0.178-0.171 0.249-0.072 0.071-0.156 0.127-0.253 0.169-0.098 0.042-0.202 0.064-0.312 0.064z" fill="#61777f" fill-rule="nonzero" stroke="none" stroke-width="1" stroke-linecap="butt" stroke-linejoin="miter" stroke-miterlimit="10" stroke-dasharray="" stroke-dashoffset="0" font-family="none" font-weight="none" font-size="none" text-anchor="none" style="mix-blend-mode: normal" data-fill-palette-color="secondary"></path></g></g><g transform="matrix(1,0,0,1,29.331764404296877,62.97728103585101)"><svg viewBox="0 0 316.416 116.75092804060267" height="116.75092804060267" width="316.416"><g><svg viewBox="0 0 316.416 116.75092804060267" height="116.75092804060267" width="316.416"><g transform="matrix(1,0,0,1,0,76.61081199245241)"><svg viewBox="0 0 316.416 40.14011604815027" height="40.14011604815027" width="316.416"><g id="textblocktransform"><svg viewBox="0 0 316.416 40.14011604815027" height="40.14011604815027" width="316.416" id="textblock"><g><svg viewBox="0 0 316.416 40.14011604815027" height="40.14011604815027" width="316.416"><g transform="matrix(1,0,0,1,0,0)"><svg width="316.416" viewBox="1.0873647928237915 -32.90337371826172 354.3094787597656 44.947227478027344" height="40.14011604815027" data-palette-color="#000000"><path d="M14.662 11.921v0c-2.563 0.294-4.848 0.062-6.853-0.695-1.998-0.751-3.779-1.973-5.342-3.665v0l3.218-3.711c1.182 1.294 2.475 2.246 3.881 2.857 1.405 0.604 2.945 0.81 4.62 0.618v0c4.08-0.467 5.905-2.576 5.476-6.324v0c-0.174-1.517-0.668-2.638-1.483-3.363-0.82-0.718-2.143-1.19-3.967-1.418v0l-2.879-0.264c-3.173-0.341-5.579-1.193-7.217-2.555-1.639-1.362-2.617-3.424-2.934-6.187v0c-0.365-3.186 0.322-5.714 2.061-7.583 1.733-1.863 4.328-2.992 7.784-3.388v0c2.464-0.282 4.592-0.1 6.384 0.546 1.791 0.64 3.411 1.777 4.86 3.409v0l-3.235 3.572c-1.03-1.143-2.134-1.966-3.312-2.469-1.171-0.497-2.594-0.649-4.27-0.457v0c-1.874 0.215-3.237 0.763-4.089 1.646-0.846 0.875-1.167 2.2-0.964 3.976v0c0.166 1.451 0.659 2.505 1.48 3.162 0.826 0.65 2.1 1.078 3.821 1.283v0l2.885 0.324c1.69 0.169 3.143 0.459 4.357 0.869 1.208 0.412 2.228 0.969 3.061 1.673 0.832 0.703 1.475 1.572 1.929 2.607 0.447 1.029 0.751 2.252 0.914 3.67v0c0.395 3.451-0.298 6.187-2.079 8.21-1.788 2.023-4.49 3.242-8.107 3.657zM42.352 8.529l-6.334 0.573-10.441-33.858 5.348-0.483 5.944 20.548 1.81 7.919 0.648-0.058 0.37-8.016 2.452-21.408 6.384-0.577 6.302 20.616 1.801 7.82 0.638-0.058 0.37-8.116 2.163-21.281 5.139-0.465-4.438 35.203-6.285 0.568-6.374-20.861-1.806-7.869-0.597 0.054-0.366 8.065zM85.055 5.019l-13.676 0.964-0.296-4.21 4.209-0.296-1.844-26.156-4.21 0.297-0.297-4.209 13.677-0.965 0.296 4.21-4.209 0.297 1.844 26.155 4.21-0.297zM96.468 4.38l-5.262 0.293-1.923-34.607 19.59-1.089 0.256 4.603-14.328 0.797 0.562 10.124 12.691-0.705 0.253 4.553-12.691 0.705zM136.351-27.407l-9.184 0.336 1.1 30.03-5.257 0.192-1.099-30.03-9.184 0.336-0.168-4.607 23.624-0.864zM151.241 2.963v0c-2.58 0.05-4.832-0.397-6.757-1.341-1.918-0.937-3.575-2.322-4.971-4.155v0l3.556-3.389c1.054 1.4 2.251 2.471 3.592 3.212 1.341 0.734 2.855 1.085 4.541 1.052v0c4.106-0.079 6.123-2.005 6.051-5.777v0c-0.029-1.526-0.415-2.689-1.158-3.488-0.749-0.792-2.02-1.388-3.815-1.787v0l-2.841-0.536c-3.126-0.64-5.441-1.716-6.943-3.227-1.503-1.511-2.281-3.657-2.334-6.436v0c-0.062-3.206 0.861-5.658 2.769-7.355 1.901-1.69 4.591-2.569 8.071-2.635v0c2.48-0.048 4.581 0.335 6.303 1.149 1.722 0.807 3.227 2.092 4.515 3.854v0l-3.558 3.249c-0.917-1.236-1.939-2.16-3.064-2.772-1.119-0.605-2.521-0.892-4.207-0.859v0c-1.886 0.036-3.295 0.453-4.227 1.251-0.925 0.791-1.37 2.08-1.336 3.867v0c0.028 1.46 0.419 2.556 1.173 3.288 0.761 0.726 1.988 1.272 3.683 1.639v0l2.842 0.596c1.667 0.328 3.085 0.754 4.255 1.278 1.164 0.524 2.126 1.176 2.888 1.955 0.762 0.779 1.32 1.705 1.674 2.778 0.347 1.067 0.535 2.313 0.562 3.74v0c0.067 3.473-0.882 6.131-2.847 7.976-1.972 1.845-4.777 2.802-8.417 2.873zM168.002-32.524l5.26-0.003 0.016 22.44c0.002 2.78 0.483 4.833 1.444 6.159 0.961 1.326 2.668 1.988 5.122 1.986v0c2.447-0.002 4.15-0.666 5.108-1.994 0.959-1.327 1.438-3.381 1.436-6.161v0l-0.016-22.44 5.27-0.003 0.015 21.6c0.002 2.347-0.207 4.383-0.625 6.11-0.412 1.72-1.081 3.144-2.007 4.272-0.926 1.127-2.142 1.955-3.649 2.482-1.506 0.534-3.349 0.802-5.529 0.804v0c-2.187 0.002-4.034-0.264-5.541-0.796-1.507-0.526-2.724-1.351-3.651-2.478-0.927-1.126-1.598-2.549-2.013-4.268-0.415-1.726-0.623-3.763-0.625-6.11v0zM222.544 2.802l0.474-21.345 0.481-5.901-0.6-0.013-2.508 5.755-7.061 13.947-6.396-14.245-2.252-5.772-0.6-0.013 0.221 5.826-0.474 21.345-5.069-0.112 0.769-34.652 6.209 0.138 5.34 12.232 2.287 6.912 0.44 0.01 2.591-6.804 5.828-11.984 6.158 0.137-0.769 34.651zM258.687 4.387l1.008-21.326 0.629-5.887-0.6-0.028-2.651 5.691-7.409 13.765-6.036-14.401-2.108-5.826-0.599-0.028 0.075 5.83-1.008 21.326-5.065-0.239 1.637-34.622 6.203 0.294 5.032 12.361 2.113 6.968 0.44 0.02 2.761-6.737 6.126-11.834 6.153 0.291-1.637 34.622zM295.732 6.933l-5.306-0.381-1.986-9.748-11.639-0.838-3.361 9.363-5.157-0.371 12.841-33.825 6.693 0.481zM287.514-7.604l-2.438-11.124-0.723-5.135-0.648-0.046-1.451 4.978-3.856 10.671zM306.858-6.259l-1.282 14.092-5.249-0.478 3.14-34.517 13.654 1.242c2.968 0.27 5.122 1.353 6.462 3.248 1.34 1.903 1.86 4.504 1.56 7.804v0c-0.243 2.669-0.934 4.782-2.073 6.338-1.139 1.557-2.723 2.527-4.753 2.911v0l5.264 15.089-5.835-0.53-4.704-14.637zM307.258-10.661l7.957 0.724c1.255 0.114 2.234-0.121 2.936-0.707 0.703-0.585 1.12-1.605 1.253-3.059v0l0.291-3.207c0.132-1.454-0.094-2.532-0.679-3.235-0.585-0.703-1.506-1.111-2.761-1.225v0l-7.957-0.724zM340.929 11.437l-5.237-0.586 1.491-13.327-8.291-22.31 5.874 0.657 5.433 16.195 0.636 0.071 8.788-14.604 5.774 0.646-12.977 19.931z" opacity="1" transform="matrix(1,0,0,1,0,0)" fill="#000000" class="undefined-text-0" data-fill-palette-color="primary" id="text-0"></path></svg></g></svg></g></svg></g></svg></g><g transform="matrix(1,0,0,1,132.22931689363713,0)"><svg viewBox="0 0 51.95736621272571 64.94670776590714" height="64.94670776590714" width="51.95736621272571"><g><svg xmlns="http://www.w3.org/2000/svg" data-name="Icon Set" viewBox="4 2 16 20" x="0" y="0" height="64.94670776590714" width="51.95736621272571" class="icon-icon-0" data-fill-palette-color="accent" id="icon-0"><path d="M20 6V21a1 1 0 0 1-1 1H5a1 1 0 0 1-1-1V6A1 1 0 0 1 5 5H7V6H5V21H19V6H17V5h2A1 1 0 0 1 20 6ZM14 4a2 2 0 0 0-4 0H8V7h8V4Zm4 5H6v1H18Zm0 3H6v1H18Zm0 3H6v1H18Zm0 3H6v1H18Z" fill="#61777f" data-fill-palette-color="accent"></path></svg></g></svg></g><g></g></svg></g></svg></g></svg></g><defs></defs></svg><rect width="375.07952880859375" height="242.7054901123047" fill="none" stroke="none" visibility="hidden"></rect></g></svg></g></svg>